HIERARCHY
ROOT hip
{
	OFFSET 0.000000 0.000000 0.000000
	CHANNELS 6 Xposition Yposition Zposition Xrotation Zrotation Yrotation 
	JOINT abdomen
	{
		OFFSET 0.000000 3.422050 0.000000
		CHANNELS 3 Xrotation Zrotation Yrotation 
		JOINT chest
		{
			OFFSET 0.000000 8.486693 -0.684411
			CHANNELS 3 Xrotation Zrotation Yrotation 
			JOINT neck
			{
				OFFSET 0.000000 10.266162 -0.273764
				CHANNELS 3 Xrotation Zrotation Yrotation 
				JOINT head
				{
					OFFSET 0.000000 3.148285 0.000000
					CHANNELS 3 Xrotation Zrotation Yrotation 
					End Site
					{
						OFFSET 0.000000 3.148289 0.000000
					}
				}
			}
			JOINT lCollar
			{
				OFFSET 3.422053 6.707223 -0.821293
				CHANNELS 3 Yrotation Zrotation Xrotation 
				JOINT lShldr
				{
					OFFSET 3.285171 0.000000 0.000000
					CHANNELS 3 Zrotation Yrotation Xrotation 
					JOINT lForeArm
					{
						OFFSET 10.129278 0.000000 0.000000
						CHANNELS 3 Yrotation Zrotation Xrotation 
						JOINT lHand
						{
							OFFSET 8.486692 0.000000 0.000000
							CHANNELS 3 Zrotation Yrotation Xrotation 
							End Site
							{
								OFFSET 4.106464 0.000000 0.000000
							}
						}
					}
				}
			}
			JOINT rCollar
			{
				OFFSET -3.558935 6.707223 -0.821293
				CHANNELS 3 Yrotation Zrotation Xrotation 
				JOINT rShldr
				{
					OFFSET -3.148289 0.000000 0.000000
					CHANNELS 3 Zrotation Yrotation Xrotation 
					JOINT rForeArm
					{
						OFFSET -10.266159 0.000000 0.000000
						CHANNELS 3 Yrotation Zrotation Xrotation 
						JOINT rHand
						{
							OFFSET -8.349810 0.000000 0.000000
							CHANNELS 3 Zrotation Yrotation Xrotation 
							End Site
							{
								OFFSET -4.106464 0.000000 0.000000
							}
						}
					}
				}
			}
		}
	}
	JOINT lThigh
	{
		OFFSET 5.338403 -1.642589 1.368821
		CHANNELS 3 Xrotation Zrotation Yrotation 
		JOINT lShin
		{
			OFFSET -2.053232 -20.121670 0.000000
			CHANNELS 3 Xrotation Zrotation Yrotation 
			JOINT lFoot
			{
				OFFSET 0.000000 -19.300380 -1.231939
				CHANNELS 3 Xrotation Yrotation Zrotation 
				End Site
				{
					OFFSET 0.000000 -2.463878 4.653993
				}
			}
		}
	}
	JOINT rThigh
	{
		OFFSET -5.338403 -1.642589 1.368821
		CHANNELS 3 Xrotation Zrotation Yrotation 
		JOINT rShin
		{
			OFFSET 2.053232 -20.121670 0.000000
			CHANNELS 3 Xrotation Zrotation Yrotation 
			JOINT rFoot
			{
				OFFSET 0.000000 -19.300380 -1.231939
				CHANNELS 3 Xrotation Yrotation Zrotation 
				End Site
				{
					OFFSET 0.000000 -2.463878 4.653993
				}
			}
		}
	}
}
MOTION
Frames: 11
Frame Time: 0.033264
0.429528 42.744518 13.267958 21.449188 0.000000 0.000000 9.723853 0.311328 -0.421016 -3.788761 1.540424 -1.876879 -1.336987 0.000000 0.000000 -10.147013 0.000000 0.000000 -5.985173 -27.074272 28.501259 -31.708406 -30.474880 -66.879143 -76.528748 -74.317764 -78.792923 8.066179 -38.009365 131.862228 6.337869 26.117582 26.560022 31.519770 30.362818 -66.993813 75.283035 74.072441 -77.647774 -6.894092 32.036564 134.375259 -45.300854 20.611740 9.607799 30.984556 -4.103458 1.453180 6.037300 9.974329 2.877289 -45.119961 -21.559935 -8.054904 29.548796 4.152931 -1.446765 8.080286 -10.862188 -1.190946 
0.429528 42.744518 13.169285 21.900122 0.000000 0.000000 9.723853 0.311328 -0.421016 -4.441482 1.540449 -1.876880 -2.020884 0.000000 0.000000 -11.195847 0.000000 0.000000 -5.985173 -27.074272 28.501259 -31.708406 -30.474880 -66.879143 -76.528748 -74.317764 -78.792923 8.372034 -37.861679 131.664001 6.337869 26.117582 26.560022 31.519770 30.362818 -66.993813 75.283035 74.072441 -77.647774 -7.183262 31.898363 134.209488 -45.986938 20.423147 9.012857 30.984556 -4.103458 1.453180 6.285385 10.516549 2.732003 -45.808205 -21.355450 -7.386805 29.548796 4.152931 -1.446765 8.347216 -11.462187 -1.001560 
0.429528 42.744518 13.070612 22.351027 0.000000 0.000000 9.723853 0.311328 -0.421016 -5.094117 1.540474 -1.876881 -2.704807 0.000000 0.000000 -12.244770 0.000000 0.000000 -5.985173 -27.074272 28.501259 -31.708406 -30.474880 -66.879143 -76.528748 -74.317764 -78.792923 8.676620 -37.713169 131.467194 6.337869 26.117582 26.560022 31.519770 30.362818 -66.993813 75.283035 74.072441 -77.647774 -7.471517 31.759447 134.044785 -46.669914 20.227938 8.421204 30.984556 -4.103458 1.453180 6.535289 11.058084 2.584082 -46.492748 -21.143568 -6.722457 29.548796 4.152931 -1.446765 8.616714 -12.061224 -0.808931 
0.429528 42.744518 12.971939 22.801895 0.000000 0.000000 9.723853 0.311328 -0.421016 -5.746627 1.540499 -1.876882 -3.388705 0.000000 0.000000 -13.293603 0.000000 0.000000 -5.985173 -27.074272 28.501259 -31.708406 -30.474880 -66.879143 -76.528748 -74.317764 -78.792923 8.979944 -37.563847 131.271790 6.337869 26.117582 26.560022 31.519770 30.362818 -66.993813 75.283035 74.072441 -77.647774 -7.758860 31.619839 133.881165 -47.349689 20.026205 7.832974 30.984556 -4.103458 1.453180 6.787053 11.598889 2.433495 -47.173409 -20.924383 -6.062015 29.548796 4.152931 -1.446765 8.888842 -12.659246 -0.613015 
0.429528 42.744518 12.873267 23.252703 0.000000 0.000000 9.723853 0.311328 -0.421016 -6.398966 1.540524 -1.876884 -4.072528 0.000000 0.000000 -14.342175 0.000000 0.000000 -5.985173 -27.074272 28.501259 -31.708406 -30.474880 -66.879143 -76.528748 -74.317764 -78.792923 9.282000 -37.413708 131.077759 6.337869 26.117582 26.560022 31.519770 30.362818 -66.993813 75.283035 74.072441 -77.647774 -8.045290 31.479536 133.718597 -48.026085 19.818016 7.248297 30.984556 -4.103458 1.453180 7.040710 12.138914 2.280216 -47.850075 -20.698002 -5.405626 29.548796 4.152931 -1.446765 9.163643 -13.256183 -0.413768 
0.429528 42.744518 12.774594 23.703444 0.000000 0.000000 9.723853 0.311328 -0.421016 -7.051094 1.540549 -1.876885 -4.756233 0.000000 0.000000 -15.390308 0.000000 0.000000 -5.985173 -27.074272 28.501259 -31.708406 -30.474880 -66.879143 -76.528748 -74.317764 -78.792923 9.582793 -37.262775 130.885147 6.337869 26.117582 26.560022 31.519770 30.362818 -66.993813 75.283035 74.072441 -77.647774 -8.330806 31.338558 133.557144 -48.699009 19.603460 6.667296 30.984556 -4.103458 1.453180 7.296305 12.678122 2.124213 -48.522594 -20.464523 -4.753436 29.548796 4.152931 -1.446765 9.441178 -13.851973 -0.211143 
0.429528 42.744518 12.675921 24.154104 0.000000 0.000000 9.723853 0.311328 -0.421016 -7.702970 1.540574 -1.876888 -5.439765 0.000000 0.000000 -16.437828 0.000000 0.000000 -5.985173 -27.074272 28.501259 -31.708406 -30.474880 -66.879143 -76.528748 -74.317764 -78.792923 9.882325 -37.111050 130.693893 6.337869 26.117582 26.560022 31.519770 30.362818 -66.993813 75.283035 74.072441 -77.647774 -8.615407 31.196896 133.396729 -49.368359 19.382639 6.090088 30.984556 -4.103458 1.453180 7.553873 13.216460 1.965455 -49.190819 -20.224056 -4.105579 29.548796 4.152931 -1.446765 9.721500 -14.446555 -0.005093 
0.429528 42.744518 12.577249 24.604658 0.000000 0.000000 9.723853 0.311328 -0.421016 -8.354547 1.540598 -1.876890 -6.123080 0.000000 0.000000 -17.484556 0.000000 0.000000 -5.985173 -27.074272 28.501259 -31.708406 -30.474880 -66.879143 -76.528748 -74.317764 -78.792923 10.180593 -36.958542 130.504074 6.337869 26.117582 26.560022 31.519770 30.362818 -66.993813 75.283035 74.072441 -77.647774 -8.899098 31.054586 133.237411 -50.033978 19.155626 5.516786 30.984556 -4.103458 1.453180 7.813457 13.753892 1.803914 -49.854633 -19.976707 -3.462188 29.548796 4.152931 -1.446765 10.004661 -15.039862 0.204428 
0.429528 42.744518 12.478576 25.055109 0.000000 0.000000 9.723853 0.311328 -0.421016 -9.005790 1.540623 -1.876893 -6.806125 0.000000 0.000000 -18.530325 0.000000 0.000000 -5.985173 -27.074272 28.501259 -31.708406 -30.474880 -66.879143 -76.528748 -74.317764 -78.792923 10.477603 -36.805264 130.315628 6.337869 26.117582 26.560022 31.519770 30.362818 -66.993813 75.283035 74.072441 -77.647774 -9.181873 30.911602 133.079163 -50.695786 18.922522 4.947500 30.984556 -4.103458 1.453180 8.075095 14.290361 1.639556 -50.513901 -19.722589 -2.823378 29.548796 4.152931 -1.446765 10.290726 -15.631838 0.417470 
0.429528 42.744518 12.379904 25.505428 0.000000 0.000000 9.723853 0.311328 -0.421016 -9.656651 1.540648 -1.876896 -7.488855 0.000000 0.000000 -19.574959 0.000000 0.000000 -5.985173 -27.074272 28.501259 -31.708406 -30.474880 -66.879143 -76.528748 -74.317764 -78.792923 10.773360 -36.651234 130.128571 6.337869 26.117582 26.560022 31.519770 30.362818 -66.993813 75.283035 74.072441 -77.647774 -9.463736 30.767977 132.922012 -51.353683 18.683426 4.382338 30.984556 -4.103458 1.453180 8.338825 14.825826 1.472350 -51.168514 -19.461824 -2.189280 29.548796 4.152931 -1.446765 10.579743 -16.222410 0.634081 
0.429528 42.744518 12.281231 25.955614 0.000000 0.000000 9.723853 0.311328 -0.421016 -10.307091 1.540673 -1.876899 -8.171222 0.000000 0.000000 -20.618286 0.000000 0.000000 -5.985173 -27.074272 28.501259 -31.708406 -30.474880 -66.879143 -76.528748 -74.317764 -78.792923 11.067864 -36.496449 129.942917 6.337869 26.117582 26.560022 31.519770 30.362818 -66.993813 75.283035 74.072441 -77.647774 -9.744683 30.623697 132.765900 -52.007545 18.438429 3.821392 30.984556 -4.103458 1.453180 8.604696 15.360247 1.302264 -51.818363 -19.194532 -1.559993 29.548796 4.152931 -1.446765 10.871777 -16.811518 0.854314 
